<svg xmlns="http://www.w3.org/2000/svg" version="1.1" xmlns:xlink="http://www.w3.org/1999/xlink" width="2000" height="1500" viewBox="0 0 2000 1500"><rect width="2000" height="1500" fill="#000000"></rect><g transform="matrix(0.437636761487965,0,0,0.437636761487965,560.9474735048251,248.38709677419354)"><svg viewBox="0 0 217 248" data-background-color="#000000" preserveAspectRatio="xMidYMid meet" height="2285" width="2000" xmlns="http://www.w3.org/2000/svg" xmlns:xlink="http://www.w3.org/1999/xlink"><g id="tight-bounds" transform="matrix(1,0,0,1,0.3510000000000275,0.4000000000000057)"><svg viewBox="0 0 216.29755247524753 247.2" height="247.2" width="216.29755247524753"><g><svg></svg></g><g><svg viewBox="0 0 216.29755247524753 247.2" height="247.2" width="216.29755247524753"><g transform="matrix(1,0,0,1,0,47.215199999999996)"><svg viewBox="0 0 216.29755247524753 152.7696" height="152.7696" width="216.29755247524753"><g><svg viewBox="0 0 216.29755247524753 152.7696" height="152.7696" width="216.29755247524753"><g><svg viewBox="0 0 216.29755247524753 152.7696" height="152.7696" width="216.29755247524753"><g id="textblocktransform"><svg viewBox="0 0 216.29755247524753 152.7696" height="152.7696" width="216.29755247524753" id="textblock"><g><svg viewBox="0 0 216.29755247524753 152.7696" height="152.7696" width="216.29755247524753"><g transform="matrix(1,0,0,1,0,0)"><svg width="216.29755247524753" viewBox="1.4 -34.8 50.050000000000004 35.349999999999994" height="152.7696" data-palette-color="#ff7700"><path d="M11.1-34.8Q13.7-34.8 15.6-33.85 17.5-32.9 19.25-31L19.25-31 17.6-29.35Q16.05-30.9 14.53-31.6 13-32.3 11.1-32.3L11.1-32.3Q8.6-32.3 7.03-30.68 5.45-29.05 5.45-26.5L5.45-26.5Q5.45-23.95 6.88-22.38 8.3-20.8 11.95-19.45L11.95-19.45Q16.15-17.85 18.13-15.6 20.1-13.35 20.1-9.35L20.1-9.35Q20.1-6.6 18.9-4.35 17.7-2.1 15.53-0.78 13.35 0.55 10.55 0.55L10.55 0.55Q7.75 0.55 5.53-0.55 3.3-1.65 1.4-3.75L1.4-3.75 3.05-5.4Q4.8-3.7 6.53-2.83 8.25-1.95 10.5-1.95L10.5-1.95Q13.5-1.95 15.3-3.95 17.1-5.95 17.1-9.25L17.1-9.25Q17.1-12.2 15.7-13.9 14.3-15.6 10.6-17.05L10.6-17.05Q6.3-18.7 4.42-20.88 2.55-23.05 2.55-26.4L2.55-26.4Q2.55-28.65 3.65-30.58 4.75-32.5 6.7-33.65 8.65-34.8 11.1-34.8L11.1-34.8ZM48.8-34.25L51.45 0 48.75 0 47.5-16.45Q46.95-23.4 46.55-31.4L46.55-31.4 39.7-4.05 36.95-4.05 29.8-31.4Q29.8-28.05 29.1-18.35L29.1-18.35Q29.1-17.75 29-16.55L29-16.55 27.85 0 25.15 0 27.75-34.25 31.65-34.25 38.35-7.5 44.85-34.25 48.8-34.25Z" opacity="1" transform="matrix(1,0,0,1,0,0)" fill="#ff7700" class="wordmark-text-0" data-fill-palette-color="primary" id="text-0"></path></svg></g></svg></g></svg></g></svg></g><g></g></svg></g></svg></g><path d="M0 41.215L0 1 216.298 1 216.298 41.215 202.521 41.215 202.521 14.777 13.777 14.777 13.777 41.215 0 41.215M0 205.985L0 246.2 216.298 246.2 216.298 205.985 202.521 205.985 202.521 232.423 13.777 232.423 13.777 205.985 0 205.985" fill="#000000" stroke="transparent" data-fill-palette-color="tertiary"></path></svg></g><defs></defs></svg><rect width="216.29755247524753" height="247.2" fill="none" stroke="none" visibility="hidden"></rect></g></svg></g></svg>